<svg width="16" height="17" viewBox="0 0 16 17" fill="none" xmlns="http://www.w3.org/2000/svg">
<g clip-path="url(#clip0_1_56)">
<path d="M11.3333 5.83329V3.83329C11.3333 3.65648 11.2631 3.48691 11.1381 3.36189C11.013 3.23686 10.8435 3.16663 10.6667 3.16663H3.99999C3.64637 3.16663 3.30723 3.3071 3.05718 3.55715C2.80713 3.8072 2.66666 4.14634 2.66666 4.49996M2.66666 4.49996C2.66666 4.85358 2.80713 5.19272 3.05718 5.44277C3.30723 5.69282 3.64637 5.83329 3.99999 5.83329H12C12.1768 5.83329 12.3464 5.90353 12.4714 6.02856C12.5964 6.15358 12.6667 6.32315 12.6667 6.49996V8.49996M2.66666 4.49996V12.5C2.66666 12.8536 2.80713 13.1927 3.05718 13.4428C3.30723 13.6928 3.64637 13.8333 3.99999 13.8333H12C12.1768 13.8333 12.3464 13.7631 12.4714 13.638C12.5964 13.513 12.6667 13.3434 12.6667 13.1666V11.1666" stroke="white" stroke-opacity="0.6" stroke-linecap="round" stroke-linejoin="round"/>
<path d="M13.3333 8.5V11.1667H10.6667C10.3131 11.1667 9.97392 11.0262 9.72387 10.7761C9.47382 10.5261 9.33334 10.187 9.33334 9.83333C9.33334 9.47971 9.47382 9.14057 9.72387 8.89052C9.97392 8.64048 10.3131 8.5 10.6667 8.5H13.3333Z" stroke="white" stroke-opacity="0.6" stroke-linecap="round" stroke-linejoin="round"/>
</g>
<defs>
<clipPath id="clip0_1_56">
<rect width="16" height="16" fill="white" transform="translate(0 0.5)"/>
</clipPath>
</defs>
</svg>
