<svg width="18" height="20" viewBox="0 0 18 20" fill="none" xmlns="http://www.w3.org/2000/svg">
<path d="M14.2 7.59432H11.2992C11.2164 7.15123 11.0639 6.75871 10.8416 6.41675C10.6192 6.06999 10.3426 5.7762 10.0116 5.53539C9.68071 5.29457 9.30324 5.11397 8.87924 4.99356C8.4604 4.86834 8.00795 4.80573 7.5219 4.80573C6.65837 4.80573 5.89309 5.00801 5.22605 5.41257C4.55902 5.81232 4.03676 6.3999 3.65929 7.17531C3.28182 7.94591 3.09309 8.88748 3.09309 10C3.09309 11.1318 3.28182 12.0855 3.65929 12.8609C4.04193 13.6315 4.56419 14.2142 5.22605 14.6092C5.89309 14.9993 6.65578 15.1943 7.51414 15.1943C7.98986 15.1943 8.43455 15.1365 8.84821 15.0209C9.26705 14.9005 9.64193 14.7247 9.97287 14.4936C10.309 14.2624 10.5908 13.9782 10.8183 13.6411C11.051 13.304 11.2113 12.9187 11.2992 12.4852L14.2 12.4996C14.0914 13.2028 13.8562 13.8626 13.4942 14.4791C13.1374 15.0956 12.6694 15.6398 12.0903 16.1118C11.5112 16.579 10.8338 16.945 10.0582 17.2099C9.28256 17.47 8.42162 17.6 7.47536 17.6C6.07924 17.6 4.83307 17.299 3.73685 16.697C2.64064 16.095 1.77711 15.2256 1.14627 14.089C0.515432 12.9524 0.200012 11.5894 0.200012 10C0.200012 8.40586 0.518018 7.04286 1.15403 5.91105C1.79004 4.77442 2.65615 3.90509 3.75237 3.30307C4.84858 2.70104 6.08958 2.40002 7.47536 2.40002C8.35957 2.40002 9.18173 2.51561 9.94184 2.74679C10.702 2.97797 11.3793 3.31752 11.974 3.76542C12.5686 4.20852 13.0573 4.75275 13.4399 5.39812C13.8277 6.03868 14.0811 6.77075 14.2 7.59432Z" fill="url(#paint0_radial_57_340)"/>
<path d="M7.80002 0C10.4522 -1.1593e-07 12.9957 1.05357 14.8711 2.92893C16.7465 4.8043 17.8 7.34783 17.8 10C17.8 12.6522 16.7465 15.1957 14.8711 17.0711C12.9957 18.9464 10.4522 20 7.80002 20L7.80002 0Z" fill="url(#paint1_radial_57_340)"/>
<g clip-path="url(#clip0_57_340)">
<path d="M15.4 7.2412H12.0571C11.9618 6.73305 11.786 6.2829 11.5298 5.89075C11.2736 5.49307 10.9548 5.15614 10.5734 4.87998C10.192 4.60381 9.75705 4.39669 9.26844 4.25861C8.78578 4.115 8.26439 4.0432 7.70426 4.0432C6.70915 4.0432 5.82725 4.27518 5.05857 4.73913C4.2899 5.19757 3.68806 5.87141 3.25307 6.76067C2.81808 7.6444 2.60059 8.72421 2.60059 10.0001C2.60059 11.2981 2.81808 12.3917 3.25307 13.2809C3.69402 14.1647 4.29585 14.833 5.05857 15.2859C5.82725 15.7333 6.70617 15.957 7.69532 15.957C8.24353 15.957 8.75598 15.8907 9.23268 15.7581C9.71534 15.6201 10.1474 15.4185 10.5287 15.1533C10.916 14.8882 11.2408 14.5623 11.503 14.1757C11.7711 13.7891 11.9558 13.3472 12.0571 12.8501L15.4 12.8667C15.2749 13.6731 15.0037 14.4298 14.5866 15.1368C14.1755 15.8438 13.6362 16.4679 12.9688 17.0092C12.3014 17.5449 11.5208 17.9647 10.627 18.2685C9.73322 18.5668 8.74109 18.7159 7.65063 18.7159C6.04177 18.7159 4.60571 18.3707 3.34245 17.6803C2.0792 16.9898 1.08408 15.9929 0.357115 14.6894C-0.369853 13.3859 -0.733337 11.8228 -0.733337 10.0001C-0.733337 8.17187 -0.366874 6.60878 0.366053 5.3108C1.09898 4.0073 2.09707 3.01034 3.36033 2.31992C4.62359 1.62951 6.05369 1.2843 7.65063 1.2843C8.66958 1.2843 9.61702 1.41686 10.493 1.68198C11.3689 1.9471 12.1495 2.33649 12.8348 2.85016C13.52 3.35831 14.0831 3.98244 14.5241 4.72257C14.971 5.45717 15.2629 6.29671 15.4 7.2412Z" fill="url(#paint2_radial_57_340)"/>
</g>
<defs>
<radialGradient id="paint0_radial_57_340" cx="0" cy="0" r="1" gradientUnits="userSpaceOnUse" gradientTransform="translate(7.36569 12.4051) scale(20.3097 13.1794)">
<stop offset="0.169" stop-color="#00CABE"/>
<stop offset="1" stop-color="#3555FF"/>
</radialGradient>
<radialGradient id="paint1_radial_57_340" cx="0" cy="0" r="1" gradientUnits="userSpaceOnUse" gradientTransform="translate(12.9184 13.1646) scale(14.5069 17.3413)">
<stop offset="0.169" stop-color="#00CABE"/>
<stop offset="1" stop-color="#3555FF"/>
</radialGradient>
<radialGradient id="paint2_radial_57_340" cx="0" cy="0" r="1" gradientUnits="userSpaceOnUse" gradientTransform="translate(7.40227 5.40009) scale(26.9927 17.4316)">
<stop stop-color="white"/>
<stop offset="1" stop-color="#77FFF7"/>
</radialGradient>
<clipPath id="clip0_57_340">
<rect width="9.2" height="18.4" fill="white" transform="translate(6.20001 0.800049)"/>
</clipPath>
</defs>
</svg>
