<svg width="33" height="32" viewBox="0 0 33 32" fill="none" xmlns="http://www.w3.org/2000/svg">
<g clip-path="url(#clip0_1_183)">
<path d="M4.5 28C4.5 28 17.8333 6.66667 28.5 6.66667M9.83333 6.66667C9.83333 7.37391 9.55238 8.05219 9.05229 8.55229C8.55219 9.05238 7.87391 9.33333 7.16667 9.33333C6.45942 9.33333 5.78115 9.05238 5.28105 8.55229C4.78095 8.05219 4.5 7.37391 4.5 6.66667C4.5 5.95942 4.78095 5.28115 5.28105 4.78105C5.78115 4.28095 6.45942 4 7.16667 4C7.87391 4 8.55219 4.28095 9.05229 4.78105C9.55238 5.28115 9.83333 5.95942 9.83333 6.66667ZM9.83333 6.66667L12.5 6.66667M19.1667 6.66667H16.5" stroke="url(#paint0_radial_1_183)" stroke-width="2.5" stroke-linecap="round" stroke-linejoin="round"/>
</g>
<defs>
<radialGradient id="paint0_radial_1_183" cx="0" cy="0" r="1" gradientUnits="userSpaceOnUse" gradientTransform="translate(28.3125 27.5385) rotate(-121.787) scale(96.1068 43.3376)">
<stop offset="0.169" stop-color="#00CABE"/>
<stop offset="1" stop-color="#3555FF"/>
</radialGradient>
<clipPath id="clip0_1_183">
<rect width="32" height="32" fill="white" transform="translate(0.5)"/>
</clipPath>
</defs>
</svg>
