<svg width="21" height="18" viewBox="0 0 21 18" fill="none" xmlns="http://www.w3.org/2000/svg">
<path fill-rule="evenodd" clip-rule="evenodd" d="M8.00939 0.780884C8.42205 0.780884 8.75659 1.11541 8.75659 1.52808C8.75659 1.94074 9.09111 2.27527 9.50378 2.27527C9.91644 2.27527 10.251 2.6098 10.251 3.02247C10.251 3.43513 9.91644 3.76966 9.50378 3.76966C9.09111 3.76966 8.75659 4.10419 8.75659 4.51686C8.75659 4.92952 8.42205 5.26405 8.00939 5.26405C7.59673 5.26405 7.2622 4.92952 7.2622 4.51686C7.2622 4.10419 6.92766 3.76966 6.515 3.76966C6.10234 3.76966 5.76781 3.43513 5.76781 3.02247C5.76781 2.6098 6.10234 2.27527 6.515 2.27527C6.92766 2.27527 7.2622 1.94074 7.2622 1.52808C7.2622 1.11541 7.59673 0.780884 8.00939 0.780884ZM14.4851 2.77349C14.8977 2.77349 15.2323 3.10802 15.2323 3.52069C15.2323 5.85911 17.1279 7.75475 19.4664 7.75475C19.8791 7.75475 20.2136 8.08928 20.2136 8.50194C20.2136 8.91461 19.8791 9.24914 19.4664 9.24914C17.128 9.24914 15.2323 11.1448 15.2323 13.4833C15.2323 13.8959 14.8977 14.2305 14.4851 14.2305C14.0724 14.2305 13.7379 13.8959 13.7379 13.4833C13.7379 11.1448 11.8422 9.24914 9.50378 9.24914C9.09112 9.24914 8.75659 8.91461 8.75659 8.50194C8.75659 8.08928 9.09112 7.75475 9.50378 7.75475C11.8422 7.75475 13.7379 5.85911 13.7379 3.52069C13.7379 3.10802 14.0724 2.77349 14.4851 2.77349ZM2.52986 5.76227C2.94252 5.76227 3.27705 6.0968 3.27705 6.50946C3.27705 6.64702 3.38857 6.75854 3.52613 6.75854C3.93879 6.75854 4.27332 7.09307 4.27332 7.50573C4.27332 7.9184 3.93879 8.25293 3.52613 8.25293C3.38853 8.25293 3.27705 8.36447 3.27705 8.50194C3.27705 8.91461 2.94252 9.24914 2.52986 9.24914C2.11719 9.24914 1.78266 8.91461 1.78266 8.50194C1.78266 8.36445 1.67118 8.25293 1.5336 8.25293C1.12094 8.25293 0.786407 7.9184 0.786407 7.50573C0.786407 7.09307 1.12094 6.75854 1.5336 6.75854C1.67115 6.75854 1.78266 6.64703 1.78266 6.50946C1.78266 6.0968 2.11719 5.76227 2.52986 5.76227ZM6.515 9.74719C6.92767 9.74719 7.2622 10.0817 7.2622 10.4944C7.2622 11.7324 8.26579 12.736 9.50378 12.736C9.91644 12.736 10.251 13.0705 10.251 13.4832C10.251 13.8958 9.91644 14.2304 9.50378 14.2304C8.26579 14.2304 7.2622 15.234 7.2622 16.4719C7.2622 16.8846 6.92767 17.2191 6.515 17.2191C6.10234 17.2191 5.76781 16.8846 5.76781 16.4719C5.76781 15.234 4.76421 14.2304 3.52622 14.2304C3.11356 14.2304 2.77903 13.8958 2.77903 13.4832C2.77903 13.0705 3.11356 12.736 3.52622 12.736C4.76421 12.736 5.76781 11.7324 5.76781 10.4944C5.76781 10.0817 6.10234 9.74719 6.515 9.74719Z" fill="url(#paint0_radial_1_149)"/>
<defs>
<radialGradient id="paint0_radial_1_149" cx="0" cy="0" r="1" gradientUnits="userSpaceOnUse" gradientTransform="translate(10.7299 11.601) scale(28.1828 14.2531)">
<stop offset="0.169" stop-color="#00CABE"/>
<stop offset="1" stop-color="#3555FF"/>
</radialGradient>
</defs>
</svg>
