<svg width="33" height="32" viewBox="0 0 33 32" fill="none" xmlns="http://www.w3.org/2000/svg">
<path d="M21.8333 8H25.8333C26.187 8 26.5261 8.14047 26.7762 8.39052C27.0262 8.64057 27.1667 8.97971 27.1667 9.33333V24C27.1667 24.7072 26.8857 25.3855 26.3856 25.8856C25.8855 26.3857 25.2073 26.6667 24.5 26.6667M24.5 26.6667C23.7928 26.6667 23.1145 26.3857 22.6144 25.8856C22.1143 25.3855 21.8333 24.7072 21.8333 24V6.66667C21.8333 6.31304 21.6929 5.97391 21.4428 5.72386C21.1928 5.47381 20.8536 5.33333 20.5 5.33333H7.16668C6.81305 5.33333 6.47392 5.47381 6.22387 5.72386C5.97382 5.97391 5.83334 6.31304 5.83334 6.66667V22.6667C5.83334 23.7275 6.25477 24.7449 7.00492 25.4951C7.75506 26.2452 8.77248 26.6667 9.83334 26.6667H24.5ZM11.1667 10.6667H16.5M11.1667 16H16.5M11.1667 21.3333H16.5" stroke="url(#paint0_radial_1_196)" stroke-width="2.5" stroke-linecap="round" stroke-linejoin="round"/>
<defs>
<radialGradient id="paint0_radial_1_196" cx="0" cy="0" r="1" gradientUnits="userSpaceOnUse" gradientTransform="translate(27 26.2564) rotate(-121.787) scale(85.4283 38.5223)">
<stop offset="0.169" stop-color="#00CABE"/>
<stop offset="1" stop-color="#3555FF"/>
</radialGradient>
</defs>
</svg>
